<svg id="visual" viewBox="0 0 900 600" width="900" height="600" xmlns="http://www.w3.org/2000/svg" xmlns:xlink="http://www.w3.org/1999/xlink" version="1.1"><rect x="0" y="0" width="900" height="600" fill="#f4ede4"></rect><defs><linearGradient id="grad1_0" x1="33.3%" y1="100%" x2="100%" y2="0%"><stop offset="20%" stop-color="#d3dce6" stop-opacity="1"></stop><stop offset="80%" stop-color="#d3dce6" stop-opacity="1"></stop></linearGradient></defs><defs><linearGradient id="grad1_1" x1="33.3%" y1="100%" x2="100%" y2="0%"><stop offset="20%" stop-color="#d3dce6" stop-opacity="1"></stop><stop offset="80%" stop-color="#d4e5e5" stop-opacity="1"></stop></linearGradient></defs><defs><linearGradient id="grad1_2" x1="33.3%" y1="100%" x2="100%" y2="0%"><stop offset="20%" stop-color="#e2eae1" stop-opacity="1"></stop><stop offset="80%" stop-color="#d4e5e5" stop-opacity="1"></stop></linearGradient></defs><defs><linearGradient id="grad1_3" x1="33.3%" y1="100%" x2="100%" y2="0%"><stop offset="20%" stop-color="#e2eae1" stop-opacity="1"></stop><stop offset="80%" stop-color="#f4ede4" stop-opacity="1"></stop></linearGradient></defs><defs><linearGradient id="grad2_0" x1="0%" y1="100%" x2="66.7%" y2="0%"><stop offset="20%" stop-color="#d3dce6" stop-opacity="1"></stop><stop offset="80%" stop-color="#d3dce6" stop-opacity="1"></stop></linearGradient></defs><defs><linearGradient id="grad2_1" x1="0%" y1="100%" x2="66.7%" y2="0%"><stop offset="20%" stop-color="#d4e5e5" stop-opacity="1"></stop><stop offset="80%" stop-color="#d3dce6" stop-opacity="1"></stop></linearGradient></defs><defs><linearGradient id="grad2_2" x1="0%" y1="100%" x2="66.7%" y2="0%"><stop offset="20%" stop-color="#d4e5e5" stop-opacity="1"></stop><stop offset="80%" stop-color="#e2eae1" stop-opacity="1"></stop></linearGradient></defs><defs><linearGradient id="grad2_3" x1="0%" y1="100%" x2="66.7%" y2="0%"><stop offset="20%" stop-color="#f4ede4" stop-opacity="1"></stop><stop offset="80%" stop-color="#e2eae1" stop-opacity="1"></stop></linearGradient></defs><g transform="translate(900, 600)"><path d="M-405.6 0C-400.1 -79.8 -394.6 -159.5 -351.3 -202.8C-308 -246.1 -226.8 -252.9 -162 -280.6C-97.2 -308.3 -48.6 -357 0 -405.6L0 0Z" fill="#ebebe1"></path><path d="M-304.2 0C-300.1 -59.8 -295.9 -119.7 -263.5 -152.1C-231 -184.6 -170.1 -189.7 -121.5 -210.4C-72.9 -231.2 -36.4 -267.7 0 -304.2L0 0Z" fill="#dae8e2"></path><path d="M-202.8 0C-200.1 -39.9 -197.3 -79.8 -175.6 -101.4C-154 -123 -113.4 -126.4 -81 -140.3C-48.6 -154.2 -24.3 -178.5 0 -202.8L0 0Z" fill="#d2e1e6"></path><path d="M-101.4 0C-100 -19.9 -98.6 -39.9 -87.8 -50.7C-77 -61.5 -56.7 -63.2 -40.5 -70.1C-24.3 -77.1 -12.1 -89.2 0 -101.4L0 0Z" fill="#d3dce6"></path></g><g transform="translate(0, 0)"><path d="M405.6 0C353.7 46.7 301.8 93.4 274.5 158.5C247.2 223.6 244.5 307 202.8 351.3C161.2 395.5 80.6 400.6 0 405.6L0 0Z" fill="#ebebe1"></path><path d="M304.2 0C265.3 35 226.4 70.1 205.9 118.9C185.4 167.7 183.4 230.3 152.1 263.5C120.9 296.6 60.4 300.4 0 304.2L0 0Z" fill="#dae8e2"></path><path d="M202.8 0C176.9 23.4 150.9 46.7 137.3 79.2C123.6 111.8 122.2 153.5 101.4 175.6C80.6 197.8 40.3 200.3 0 202.8L0 0Z" fill="#d2e1e6"></path><path d="M101.4 0C88.4 11.7 75.5 23.4 68.6 39.6C61.8 55.9 61.1 76.8 50.7 87.8C40.3 98.9 20.1 100.1 0 101.4L0 0Z" fill="#d3dce6"></path></g></svg>